<svg width="64" height="64" viewBox="0 0 64 64" xmlns="http://www.w3.org/2000/svg"><defs><clipPath id="satori_bc-id"><path x="0" y="0" width="64" height="64" d="M16,0 h32 a16,16 0 0 1 16,16 v32 a16,16 0 0 1 -16,16 h-32 a16,16 0 0 1 -16,-16 v-32 a16,16 0 0 1 16,-16"/></clipPath></defs><mask id="satori_om-id"><rect x="1" y="1" width="62" height="62" fill="#fff"/><path width="64" height="64" fill="none" stroke="#000" stroke-width="2" d="M4.686,4.686 A16,16 0 0 1 16,0 h32 a16,16 0 0 1 16,16 v32 a16,16 0 0 1 -16,16 h-32 a16,16 0 0 1 -16,-16 v-32 A16,16 0 0 1 4.686,4.686"/></mask><path x="0" y="0" width="64" height="64" fill="#121316" d="M16,0 h32 a16,16 0 0 1 16,16 v32 a16,16 0 0 1 -16,16 h-32 a16,16 0 0 1 -16,-16 v-32 a16,16 0 0 1 16,-16"/><path width="64" height="64" clip-path="url(#satori_bc-id)" fill="none" stroke="#26282E" stroke-width="2" d="M4.686,4.686 A16,16 0 0 1 16,0 h32 a16,16 0 0 1 16,16 v32 a16,16 0 0 1 -16,16 h-32 a16,16 0 0 1 -16,-16 v-32 A16,16 0 0 1 4.686,4.686"/><mask id="satori_om-id-0"><rect x="9" y="15" width="31" height="34" fill="#fff"/></mask><g  ><path fill="#F4F4F5" d="M17.3 41L14.4 41L14.4 31.1L10.4 31.1L10.4 28.4L14.4 28.4L14.4 26.2Q14.4 24.4 15.5 23.4Q16.7 22.3 18.7 22.3L18.7 22.3L22.8 22.3L22.8 24.9L18.8 24.9Q18.1 24.9 17.7 25.3Q17.3 25.6 17.3 26.3L17.3 26.3L17.3 28.4L22.8 28.4L22.8 31.1L17.3 31.1L17.3 41ZM29.4 45.6L26.4 45.6L26.4 26.9L29.4 26.9L29.4 29.6L29.4 29.6Q29.6 28.4 30.4 27.6L30.4 27.6Q31.4 26.7 33.2 26.7L33.2 26.7Q35.3 26.7 36.6 28.1Q37.8 29.6 37.8 32.0L37.8 32.0L37.8 35.9Q37.8 37.5 37.2 38.7Q36.7 40.0 35.6 40.6Q34.6 41.3 33.2 41.3L33.2 41.3Q31.4 41.3 30.4 40.3L30.4 40.3Q29.6 39.5 29.4 38.3L29.4 38.3L29.3 38.3L29.4 41.6L29.4 45.6ZM32.1 38.7L32.1 38.7Q33.4 38.7 34.1 37.9Q34.9 37.2 34.9 35.8L34.9 35.8L34.9 32.1Q34.9 30.7 34.1 30.0Q33.4 29.2 32.1 29.2L32.1 29.2Q30.9 29.2 30.1 30.0Q29.4 30.8 29.4 32.1L29.4 32.1L29.4 35.8Q29.4 37.1 30.1 37.9Q30.9 38.7 32.1 38.7Z "/></g><mask id="satori_om-id-1"><rect x="40" y="15" width="16" height="34" fill="#fff"/></mask><g  ><path fill="#2DD4BF" d="M47.7 41.3L47.7 41.3Q46.6 41.3 46.0 40.6Q45.4 40.0 45.4 39.0L45.4 39.0Q45.4 37.9 46.0 37.2Q46.6 36.6 47.7 36.6L47.7 36.6Q48.8 36.6 49.4 37.2Q50.0 37.9 50.0 39.0L50.0 39.0Q50.0 40.0 49.4 40.6Q48.8 41.3 47.7 41.3Z "/></g></svg>